PathFileType	4	(X/Y/Z)	 s06c0402.trc
DataRate	CameraRate	NumFrames	NumMarkers	Units	OrigDataRate	OrigDataStartFrame	OrigNumFrames
200	200	6	48	mm	200	501	2000
Frame#	Time	racr			lacr			c7			jug			rlel			rdr			llel			ldr			s2			lic			ric			lasi			rasi			rpsi			lpsi			rgt			lgt			rth1			rth2			rth3			rth4			rlfc			rmfc			rsh1			rsh2			rsh3			rsh4			rlmal			rcal			rtoe			rmt5			lth1			lth2			lth4			lth3			llfc			lmfc			llmal			lcal			lmt5			lsh1			lsh2			lsh3			lsh4			ltoe			SBIKE			LBIKE			RBIKE			
		X1	Y1	Z1	X2	Y2	Z2	X3	Y3	Z3	X4	Y4	Z4	X5	Y5	Z5	X6	Y6	Z6	X7	Y7	Z7	X8	Y8	Z8	X9	Y9	Z9	X10	Y10	Z10	X11	Y11	Z11	X12	Y12	Z12	X13	Y13	Z13	X14	Y14	Z14	X15	Y15	Z15	X16	Y16	Z16	X17	Y17	Z17	X18	Y18	Z18	X19	Y19	Z19	X20	Y20	Z20	X21	Y21	Z21	X22	Y22	Z22	X23	Y23	Z23	X24	Y24	Z24	X25	Y25	Z25	X26	Y26	Z26	X27	Y27	Z27	X28	Y28	Z28	X29	Y29	Z29	X30	Y30	Z30	X31	Y31	Z31	X32	Y32	Z32	X33	Y33	Z33	X34	Y34	Z34	X35	Y35	Z35	X36	Y36	Z36	X37	Y37	Z37	X38	Y38	Z38	X39	Y39	Z39	X40	Y40	Z40	X41	Y41	Z41	X42	Y42	Z42	X43	Y43	Z43	X44	Y44	Z44	X45	Y45	Z45	X46	Y46	Z46	X47	Y47	Z47	X48	Y48	Z48	
501	2.5050	710.794292	1337.142303	-54.882228	695.127728	1280.731121	-391.764553	692.419154	1425.462486	-233.582764	711.546757	1261.084057	-213.331958	578.858770	1105.006166	71.151318	684.427262	934.900865	-46.552202	517.356843	1075.028045	-489.322928	662.539903	935.557106	-399.327641	172.915189	1176.330550	-183.411736	328.867502	1126.365349	-352.199333	325.851187	1149.466462	-23.292826	352.143402	1073.347991	-316.150426	350.335150	1104.778433	-67.563437	207.728035	1213.948381	-155.561184	209.662956	1209.953237	-214.611867	299.081689	1077.438545	15.056362	277.221595	1044.055267	-374.423737	402.673349	998.965359	11.871645	482.378728	957.804490	-0.974807	528.386694	884.290515	-7.562091	500.087682	983.638210	-22.234481	561.107850	790.751033	-37.735770	538.373765	777.728242	-148.963058	460.112600	719.614440	-13.681201	391.599862	669.081504	-36.426203	307.176923	649.570461	-32.376223	402.357337	654.735575	-72.040219	225.618146	624.067035	-33.699516	160.769466	656.333006	-80.669500	307.941201	424.728437	-103.732741	239.150024	486.868451	-25.584157	260.939013	918.087500	-398.937159	288.061168	835.384772	-401.920114	325.130235	837.026390	-398.439407	270.663913	747.775649	-394.201678	264.999865	629.526090	-379.860635	278.143724	606.437123	-266.808675	164.151238	269.783776	-367.062522	98.715095	270.611140	-316.637536	251.138965	152.388604	-402.907395	231.348603	524.197941	-400.656694	232.639868	438.273892	-386.580569	189.488821	360.731309	-377.974444	263.260236	434.317756	-361.885822	334.465472	118.217197	-349.564634	-156.468798	857.516674	-213.399681	-49.447696	83.783717	-413.845571	-48.998391	80.040512	-16.406563	
502	2.5100	712.747926	1335.573336	-52.469990	695.564778	1281.292435	-389.564124	694.161191	1425.052735	-230.481413	711.794415	1260.196238	-211.558201	578.610341	1104.827340	72.282526	684.223901	935.076481	-46.620315	518.009933	1075.927979	-488.219003	663.022416	935.512462	-399.501217	172.209040	1180.153428	-183.606354	328.840157	1128.813910	-351.213813	325.100881	1153.655687	-21.648787	350.822427	1075.103280	-315.312192	350.074683	1108.816858	-65.469333	207.190633	1217.806447	-155.845633	209.411138	1213.494771	-214.858399	297.452658	1082.243076	15.781147	275.624348	1046.394358	-373.651920	401.112160	1003.557302	12.148898	481.124505	963.079678	-0.689438	527.298879	889.708471	-7.332360	498.607157	988.614247	-21.848041	560.771824	795.776869	-37.649240	538.130217	782.944476	-149.085228	460.571874	723.443506	-13.582913	392.922074	671.908685	-36.796544	308.781256	651.205293	-32.451797	403.580472	657.947896	-72.791792	227.587434	624.993239	-33.788935	161.438703	655.444777	-80.566276	315.509858	428.387715	-103.889330	244.945268	488.377363	-25.540319	258.082198	920.737207	-398.060441	284.205735	837.657858	-400.919189	321.298463	838.852124	-397.175621	265.673239	750.315782	-393.289062	258.577368	631.972665	-378.566272	272.414124	608.847061	-265.307023	161.587651	271.858434	-366.765599	96.886812	274.069406	-316.297350	245.714983	151.293107	-402.877011	225.181246	526.808781	-399.639225	227.631882	440.864872	-386.244760	185.483978	362.725240	-377.571155	258.391877	437.075213	-361.739579	328.160013	114.882815	-349.623898	-156.537717	857.538206	-213.321101	-49.453301	83.799809	-413.820775	-48.998479	80.021313	-16.407004	
503	2.5150	714.851721	1333.468172	-50.846542	696.001975	1281.768075	-387.306637	695.973766	1424.611557	-227.385372	712.077025	1259.347022	-209.345187	578.445791	1104.350984	73.311949	684.056927	935.308092	-46.756354	518.826795	1077.058778	-487.422825	663.433661	935.550710	-399.715209	171.740873	1184.358170	-184.004030	328.882977	1131.553008	-350.312230	323.118131	1157.450119	-21.016143	349.486184	1077.127916	-314.440776	348.224497	1112.327550	-64.446411	206.894885	1221.697158	-155.792252	209.308397	1217.272999	-215.051109	295.953258	1087.366479	16.282778	273.990531	1048.938194	-372.739393	399.494163	1008.216738	12.547183	479.801041	968.236047	-0.255804	526.050961	894.634579	-7.086352	497.042992	993.642028	-21.492608	560.057217	800.991112	-37.373995	537.647997	787.994481	-149.189898	461.187606	726.812618	-14.314177	394.043148	674.596951	-37.123883	310.147846	652.622107	-32.739094	404.770888	660.645810	-73.516762	229.406319	625.524632	-34.047963	162.078478	654.031654	-80.549964	323.005004	431.700453	-103.873094	250.669897	489.679576	-25.501191	255.319825	923.577187	-397.202339	280.510749	840.193022	-399.998348	317.715292	840.950199	-395.822505	260.836920	753.075988	-392.401847	252.161946	634.909090	-377.230867	266.811410	611.550253	-264.039014	159.324905	274.185638	-366.618976	95.524803	277.923930	-316.061011	240.400548	150.386293	-402.800390	219.118920	529.802387	-398.678095	222.879129	443.714048	-385.988340	181.813802	364.953963	-377.294466	253.891085	440.217974	-361.702496	321.724889	111.498796	-349.646366	-156.543133	857.556876	-213.260236	-49.450482	83.870017	-413.801216	-49.002104	80.042652	-16.392919	
504	2.5200	716.808827	1331.796595	-48.584124	696.539620	1282.316484	-385.172682	697.804783	1424.185075	-224.386653	712.384531	1258.558185	-207.154367	578.277213	1103.753346	74.167415	683.931690	935.485109	-46.803524	519.373094	1078.145977	-486.117627	663.828706	935.712778	-399.965420	171.261955	1188.753358	-184.142466	328.908262	1134.330378	-349.416104	321.220459	1161.389646	-20.370012	348.167666	1079.456022	-313.580743	346.508311	1116.051901	-63.448103	206.528586	1225.938779	-155.946596	209.184783	1221.252633	-215.200943	294.592313	1092.577379	16.707440	272.399206	1051.698400	-371.895726	397.822899	1012.849861	12.895509	477.657518	972.545565	-0.073378	524.648928	899.690210	-6.822687	495.479479	998.357061	-21.310442	559.340431	805.856582	-37.645755	536.920706	792.856629	-149.366206	460.941055	730.246015	-15.170657	395.004056	677.034793	-37.513248	311.476520	653.862019	-32.992307	405.736055	663.237967	-73.849664	231.144597	625.594809	-34.475836	162.952828	652.191745	-80.543378	330.545067	434.998371	-103.990822	256.419944	490.790168	-25.515664	252.621484	926.634902	-396.487370	276.895733	842.916812	-399.149133	314.083662	843.288935	-394.565841	256.233520	756.035682	-391.565266	245.968964	637.815627	-375.926934	261.429772	614.369007	-262.865013	157.546136	276.645521	-366.607138	94.601097	282.150143	-315.888201	234.966523	149.550229	-402.763145	213.248446	532.899389	-397.764225	218.302442	446.777318	-385.802540	178.441962	367.452234	-377.125953	249.540392	443.580474	-361.849645	315.095649	108.184900	-349.754962	-156.740747	857.617809	-213.322152	-49.436269	83.989746	-413.812735	-49.009786	80.067227	-16.380851	
505	2.5250	718.645535	1330.109172	-46.383448	697.116714	1282.900488	-383.082585	699.659157	1423.798870	-221.438382	712.643364	1257.625496	-205.007370	578.004696	1103.443644	74.819906	683.840479	935.704185	-46.840192	520.002572	1079.421447	-484.905492	664.088890	935.861037	-400.031203	171.048055	1193.306292	-185.341786	328.944407	1137.249554	-348.586909	319.370560	1165.528414	-19.852779	346.891890	1081.956092	-312.730044	344.649863	1119.825655	-62.527127	206.251665	1230.360772	-156.078409	209.162690	1225.173882	-215.381977	293.123147	1097.894650	17.336831	270.918140	1054.633784	-371.037724	396.158918	1017.526662	13.258324	475.002143	977.451816	1.013928	523.067450	904.335845	-6.689750	493.778393	1003.219581	-20.909811	558.396792	810.422638	-37.919835	535.997214	797.621065	-149.603893	461.075582	733.321421	-15.257567	397.179502	679.063531	-36.856474	312.619551	654.758178	-33.366128	406.638548	665.671201	-74.207335	232.852508	625.919182	-34.426417	163.304872	650.024085	-80.866409	337.728157	438.155130	-103.870209	262.181195	491.520106	-25.599322	250.012793	929.831833	-395.776999	273.383297	845.836588	-398.319651	310.583991	845.819393	-393.369442	251.664731	759.155078	-390.829444	239.821736	641.170137	-374.634719	256.248322	617.433061	-261.726294	156.101743	279.285086	-366.730944	94.075940	286.522946	-315.745210	229.522089	148.968562	-402.723237	207.501330	536.202940	-396.850124	214.019052	450.083904	-385.779217	175.465894	370.071475	-377.171941	245.474454	447.125838	-361.984430	308.365446	105.180769	-349.824627	-156.689503	857.636815	-213.091385	-49.435576	84.031567	-413.816184	-49.012684	80.090086	-16.377437	
506	2.5300	720.196597	1328.842971	-43.510062	697.703330	1283.416088	-380.997696	701.506663	1423.380662	-218.528474	712.994896	1256.828924	-202.793924	577.801374	1102.782924	75.855953	683.716275	935.997510	-46.925764	520.460023	1080.618695	-483.594430	664.278393	936.034875	-399.982732	170.749850	1197.938035	-185.500616	329.010116	1140.242810	-347.742309	317.488847	1169.598078	-19.471349	345.712798	1084.423939	-311.912364	342.684602	1123.518736	-61.767477	206.071498	1234.837092	-156.162057	209.190911	1229.380123	-215.382460	291.766816	1103.336766	17.800977	269.417691	1057.734712	-370.203658	394.577044	1022.143794	13.726212	473.137453	981.666847	1.218407	521.390038	909.030024	-6.487474	492.039220	1007.708588	-20.604118	557.149329	814.859661	-38.117543	534.876184	802.065018	-149.855875	460.835239	736.430411	-15.445508	397.999116	681.041401	-36.975643	313.664554	655.474727	-33.641174	407.526920	667.912441	-74.498120	234.478229	625.490209	-34.514051	163.833785	647.406384	-80.984693	344.799306	440.724440	-103.532605	267.760638	492.121583	-25.473582	247.437425	933.115283	-395.188812	270.013516	848.898868	-397.490421	307.163900	848.450817	-392.127450	247.335647	762.468348	-389.937957	233.792250	644.439378	-373.396366	251.432399	620.516651	-260.632149	154.850784	282.117954	-367.036984	93.656547	291.111302	-315.765520	224.196336	148.669604	-402.722672	201.932526	539.540595	-396.056593	209.948410	453.458998	-385.808796	172.806205	372.766710	-377.254144	241.644691	450.893219	-362.245388	301.603952	102.544647	-349.942838	-156.566225	857.704492	-212.869511	-49.440554	84.110589	-413.804974	-48.992181	80.136798	-16.366372	
